<svg width="24" height="24" viewBox="0 0 24 24" fill="none" xmlns="http://www.w3.org/2000/svg">
<path fill-rule="evenodd" clip-rule="evenodd" d="M21.001 12.5C21.001 12.0858 20.6652 11.75 20.251 11.75H3.75098C3.33676 11.75 3.00098 12.0858 3.00098 12.5C3.00098 12.9142 3.33676 13.25 3.75098 13.25H20.251C20.6652 13.25 21.001 12.9142 21.001 12.5Z"/>
<path fill-rule="evenodd" clip-rule="evenodd" d="M11.0303 5.21968C10.7374 4.92678 10.2626 4.92678 9.96967 5.21968L3.21967 11.9697C2.92678 12.2626 2.92678 12.7374 3.21967 13.0303L9.96967 19.7803C10.2626 20.0732 10.7374 20.0732 11.0303 19.7803C11.3232 19.4874 11.3232 19.0126 11.0303 18.7197L4.81066 12.5L11.0303 6.28034C11.3232 5.98744 11.3232 5.51257 11.0303 5.21968Z"/>
</svg>
