<svg width="24" height="24" viewBox="0 0 24 24" xmlns="http://www.w3.org/2000/svg">
<path fill-rule="evenodd" clip-rule="evenodd" d="M3 12.5C3 12.0858 3.33579 11.75 3.75 11.75H20.25C20.6642 11.75 21 12.0858 21 12.5C21 12.9142 20.6642 13.25 20.25 13.25H3.75C3.33579 13.25 3 12.9142 3 12.5Z"/>
<path fill-rule="evenodd" clip-rule="evenodd" d="M12.9706 5.21967C13.2635 4.92678 13.7384 4.92678 14.0313 5.21967L20.7813 11.9697C21.0742 12.2626 21.0742 12.7374 20.7813 13.0303L14.0313 19.7803C13.7384 20.0732 13.2635 20.0732 12.9706 19.7803C12.6778 19.4874 12.6778 19.0126 12.9706 18.7197L19.1903 12.5L12.9706 6.28033C12.6778 5.98744 12.6778 5.51256 12.9706 5.21967Z"/>
</svg>
