<svg width="46" height="46" viewBox="0 0 46 46" xmlns="http://www.w3.org/2000/svg">
<path d="M15.3613 9.8843C14.7876 8.63025 13.0006 8.73334 12.5702 10.0453L8.10742 20.901C7.66225 22.2581 8.65629 23.6596 10.064 23.6596C10.9541 23.6596 11.7437 23.0793 12.0226 22.2204L13.5371 17.5562C13.8839 16.488 15.3463 16.4221 15.7848 17.4549L20.0304 27.4552C20.2057 27.8682 20.1932 28.3386 19.9961 28.7414L17.3542 34.14C16.7104 35.4555 17.652 37 19.0978 37C19.8506 37 20.5359 36.5591 20.858 35.8677L29.4539 17.4133C29.9267 16.3982 31.3829 16.5132 31.6958 17.5903L33.0299 22.1838C33.2841 23.0589 34.0749 23.6596 34.9728 23.6596C36.3531 23.6596 37.3292 22.2873 36.8962 20.9554L32.4775 10.1113C32.048 8.7899 30.2457 8.69162 29.6795 9.9587L23.7042 21.7273C23.2789 22.679 21.9508 22.685 21.5172 21.7372L15.3613 9.8843Z"/>
<path d="M16.4333 27.6896C16.4333 28.9175 15.4537 29.913 14.2453 29.913C13.0369 29.913 12.0573 28.9175 12.0573 27.6896C12.0573 26.4616 13.0369 25.4662 14.2453 25.4662C15.4537 25.4662 16.4333 26.4616 16.4333 27.6896Z"/>
<path d="M31.7302 27.6896C31.7302 28.9175 30.7506 29.913 29.5422 29.913C28.3338 29.913 27.3542 28.9175 27.3542 27.6896C27.3542 26.4616 28.3338 25.4662 29.5422 25.4662C30.7506 25.4662 31.7302 26.4616 31.7302 27.6896Z"/>
</svg>
